<svg width="17" height="17" viewBox="0 0 17 17" fill="none" xmlns="http://www.w3.org/2000/svg">
<path d="M15.3144 5.06L10.1023 0.724404C9.62456 0.318906 9.00603 0.0947266 8.365 0.0947266C7.72398 0.0947266 7.10545 0.318906 6.62766 0.724404L1.41563 5.06C1.13971 5.29415 0.919531 5.58139 0.769747 5.90259C0.619964 6.2238 0.544015 6.57159 0.546957 6.92282V14.1268C0.546957 14.7827 0.821519 15.4116 1.31024 15.8754C1.79896 16.3391 2.46181 16.5996 3.15297 16.5996H13.577C14.2682 16.5996 14.931 16.3391 15.4198 15.8754C15.9085 15.4116 16.1831 14.7827 16.1831 14.1268V6.91458C16.1848 6.56473 16.1082 6.21853 15.9585 5.89883C15.8087 5.57914 15.5892 5.29323 15.3144 5.06ZM10.1023 14.9511H6.62766V10.8298C6.62766 10.6112 6.71918 10.4015 6.88209 10.247C7.045 10.0924 7.26595 10.0055 7.49633 10.0055H9.23368C9.46406 10.0055 9.68501 10.0924 9.84792 10.247C10.0108 10.4015 10.1023 10.6112 10.1023 10.8298V14.9511ZM14.4457 14.1268C14.4457 14.3454 14.3542 14.5551 14.1913 14.7097C14.0284 14.8643 13.8074 14.9511 13.577 14.9511H11.8397V10.8298C11.8397 10.174 11.5651 9.54502 11.0764 9.08129C10.5877 8.61755 9.92483 8.35703 9.23368 8.35703H7.49633C6.80517 8.35703 6.14232 8.61755 5.6536 9.08129C5.16488 9.54502 4.89032 10.174 4.89032 10.8298V14.9511H3.15297C2.92259 14.9511 2.70164 14.8643 2.53873 14.7097C2.37582 14.5551 2.2843 14.3454 2.2843 14.1268V6.91458C2.28446 6.79755 2.31088 6.68189 2.3618 6.5753C2.41273 6.46871 2.48699 6.37363 2.57965 6.29639L7.79168 1.96903C7.9502 1.83689 8.154 1.76401 8.365 1.76401C8.57601 1.76401 8.77981 1.83689 8.93833 1.96903L14.1504 6.29639C14.243 6.37363 14.3173 6.46871 14.3682 6.5753C14.4191 6.68189 14.4456 6.79755 14.4457 6.91458V14.1268Z" fill="#5CCA3B"/>
</svg>
