<svg width="254" height="51" viewBox="0 0 254 51" fill="none" xmlns="http://www.w3.org/2000/svg">
<path d="M14.6254 27.1644C16.5411 27.1644 18.013 26.6737 19.0409 25.6925C20.0689 24.7113 20.5828 23.3329 20.5828 21.5573C20.5828 19.7818 20.0689 18.4034 19.0409 17.4222C18.013 16.441 16.5411 15.9503 14.6254 15.9503H7.44141C7.09097 15.9503 6.91576 16.1256 6.91576 16.476V26.6387C6.91576 26.9891 7.09097 27.1644 7.44141 27.1644H14.6254ZM6.91576 37.8527C6.91576 38.2032 7.09097 38.3784 7.44141 38.3784H9.54404C9.89448 38.3784 10.0697 38.5536 10.0697 38.904C10.0697 39.2545 9.89448 39.4297 9.54404 39.4297H2.88572C2.53528 39.4297 2.36006 39.2545 2.36006 38.904C2.36006 38.5536 2.53528 38.3784 2.88572 38.3784H5.33878C5.68922 38.3784 5.86444 38.2032 5.86444 37.8527V16.476C5.86444 16.1256 5.68922 15.9503 5.33878 15.9503H2.88572C2.53528 15.9503 2.36006 15.7751 2.36006 15.4247C2.36006 15.0742 2.53528 14.899 2.88572 14.899H14.6254C16.8916 14.899 18.6204 15.4831 19.8119 16.6512C21.0267 17.8193 21.6342 19.4547 21.6342 21.5573C21.6342 23.66 21.0267 25.2954 19.8119 26.4635C18.6204 27.6316 16.8916 28.2157 14.6254 28.2157H14.4502C14.2633 28.2157 14.1231 28.2741 14.0296 28.3909C13.9596 28.4843 13.9829 28.6012 14.0997 28.7413L20.7581 37.8527C21.0618 38.2032 21.3538 38.3784 21.6342 38.3784H23.912C24.2624 38.3784 24.4377 38.5536 24.4377 38.904C24.4377 39.2545 24.2624 39.4297 23.912 39.4297H16.9032C16.5528 39.4297 16.3776 39.2545 16.3776 38.904C16.3776 38.5536 16.5528 38.3784 16.9032 38.3784H19.1811C19.6016 38.3784 19.66 38.2032 19.3563 37.8527L12.3475 28.2157H7.44141C7.09097 28.2157 6.91576 28.3909 6.91576 28.7413V37.8527Z" fill="white"/>
<path d="M74.0101 37.257C72.4214 35.5749 71.6271 33.3788 71.6271 30.6687C71.6271 27.9587 72.4214 25.7626 74.0101 24.0805C75.5987 22.3984 77.6663 21.5573 80.2128 21.5573C82.7593 21.5573 84.8269 22.3984 86.4156 24.0805C88.0042 25.7626 88.7985 27.9587 88.7985 30.6687C88.7985 33.3788 88.0042 35.5749 86.4156 37.257C84.8269 38.9391 82.7593 39.7801 80.2128 39.7801C77.6663 39.7801 75.5987 38.9391 74.0101 37.257ZM80.2128 22.6087C77.9466 22.6087 76.1244 23.3446 74.746 24.8164C73.3676 26.2883 72.6784 28.2507 72.6784 30.7038C72.6784 33.1335 73.3559 35.0843 74.7109 36.5561C76.0893 38.0046 77.9233 38.7288 80.2128 38.7288C82.5023 38.7288 84.3246 38.0046 85.6796 36.5561C87.058 35.0843 87.7472 33.1335 87.7472 30.7038C87.7472 28.2507 87.058 26.2883 85.6796 24.8164C84.3013 23.3446 82.479 22.6087 80.2128 22.6087ZM91.5648 39.4297C91.2144 39.4297 91.0391 39.2545 91.0391 38.904C91.0391 38.5536 91.2144 38.3784 91.5648 38.3784H94.0179C94.3683 38.3784 94.5435 38.2032 94.5435 37.8527V16.476C94.5435 16.1256 94.3683 15.9503 94.0179 15.9503H91.5648C91.2144 15.9503 91.0391 15.7751 91.0391 15.4247C91.0391 15.0742 91.2144 14.899 91.5648 14.899H95.0692C95.4196 14.899 95.5948 15.0742 95.5948 15.4247V37.8527C95.5948 38.2032 95.7701 38.3784 96.1205 38.3784H98.5736C98.924 38.3784 99.0992 38.5536 99.0992 38.904C99.0992 39.2545 98.924 39.4297 98.5736 39.4297H91.5648ZM100.456 21.9078H103.96C104.311 21.9078 104.486 22.083 104.486 22.4334V32.7714C104.486 34.7572 105 36.2524 106.028 37.257C107.056 38.2382 108.458 38.7288 110.233 38.7288C112.009 38.7288 113.679 37.9462 115.245 36.3809C115.945 35.6566 116.565 34.8623 117.102 33.9979V23.4848C117.102 23.1343 116.927 22.9591 116.576 22.9591H114.123C113.773 22.9591 113.598 22.7839 113.598 22.4334C113.598 22.083 113.773 21.9078 114.123 21.9078H117.628C117.978 21.9078 118.153 22.083 118.153 22.4334V37.8527C118.153 38.2032 118.328 38.3784 118.679 38.3784H121.132C121.482 38.3784 121.658 38.5536 121.658 38.904C121.658 39.2545 121.482 39.4297 121.132 39.4297H117.628C117.277 39.4297 117.102 39.2545 117.102 38.904V36.9416C117.102 36.708 117.055 36.5444 116.962 36.451C116.868 36.3575 116.728 36.4042 116.541 36.5911C114.649 38.7171 112.593 39.7801 110.373 39.7801C108.154 39.7801 106.437 39.1844 105.222 37.9929C104.031 36.778 103.435 35.0375 103.435 32.7714V23.4848C103.435 23.1343 103.26 22.9591 102.909 22.9591H100.456C100.106 22.9591 99.9304 22.7839 99.9304 22.4334C99.9304 22.083 100.106 21.9078 100.456 21.9078ZM135.205 36.9766C135.438 36.743 135.649 36.7196 135.836 36.9065C136.022 37.0934 136.116 37.2453 136.116 37.3621C136.139 37.4789 136.057 37.6308 135.871 37.8177C135.31 38.3784 134.749 38.7989 134.188 39.0792C132.74 39.5699 131.911 39.8035 131.7 39.7801C131.49 39.7801 131.373 39.7801 131.35 39.7801C129.715 39.7801 128.43 39.2545 127.495 38.2032C126.561 37.1518 126.093 35.6333 126.093 33.6475V23.4848C126.093 23.1343 125.918 22.9591 125.568 22.9591H123.115C122.764 22.9591 122.589 22.7839 122.589 22.4334C122.589 22.083 122.764 21.9078 123.115 21.9078H125.568C125.918 21.9078 126.093 21.7326 126.093 21.3821V15.4247C126.093 15.0742 126.269 14.899 126.619 14.899C126.969 14.899 127.145 15.0742 127.145 15.4247V21.3821C127.145 21.7326 127.32 21.9078 127.67 21.9078H133.628C133.978 21.9078 134.153 22.083 134.153 22.4334C134.153 22.7839 133.978 22.9591 133.628 22.9591H127.67C127.32 22.9591 127.145 23.1343 127.145 23.4848V33.6475C127.145 35.3296 127.518 36.6028 128.266 37.4672C129.014 38.3083 130.042 38.7288 131.35 38.7288C132.682 38.7288 133.967 38.1447 135.205 36.9766ZM138.019 39.4297C137.669 39.4297 137.494 39.2545 137.494 38.904C137.494 38.5536 137.669 38.3784 138.019 38.3784H140.473C140.823 38.3784 140.998 38.2032 140.998 37.8527V23.4848C140.998 23.1343 140.823 22.9591 140.473 22.9591H138.019C137.669 22.9591 137.494 22.7839 137.494 22.4334C137.494 22.083 137.669 21.9078 138.019 21.9078H141.524C141.874 21.9078 142.05 22.083 142.05 22.4334V37.8527C142.05 38.2032 142.225 38.3784 142.575 38.3784H145.028C145.379 38.3784 145.554 38.5536 145.554 38.904C145.554 39.2545 145.379 39.4297 145.028 39.4297H138.019ZM140.332 18.7188C140.075 18.4385 139.947 18.0997 139.947 17.7025C139.947 17.3054 140.075 16.9783 140.332 16.7213C140.613 16.441 140.951 16.3008 141.349 16.3008C141.746 16.3008 142.073 16.441 142.33 16.7213C142.61 16.9783 142.75 17.3054 142.75 17.7025C142.75 18.0997 142.61 18.4385 142.33 18.7188C142.073 18.9758 141.746 19.1043 141.349 19.1043C140.951 19.1043 140.613 18.9758 140.332 18.7188ZM150.189 37.257C148.601 35.5749 147.806 33.3788 147.806 30.6687C147.806 27.9587 148.601 25.7626 150.189 24.0805C151.778 22.3984 153.845 21.5573 156.392 21.5573C158.939 21.5573 161.006 22.3984 162.595 24.0805C164.183 25.7626 164.978 27.9587 164.978 30.6687C164.978 33.3788 164.183 35.5749 162.595 37.257C161.006 38.9391 158.939 39.7801 156.392 39.7801C153.845 39.7801 151.778 38.9391 150.189 37.257ZM156.392 22.6087C154.126 22.6087 152.304 23.3446 150.925 24.8164C149.547 26.2883 148.858 28.2507 148.858 30.7038C148.858 33.1335 149.535 35.0843 150.89 36.5561C152.269 38.0046 154.102 38.7288 156.392 38.7288C158.682 38.7288 160.504 38.0046 161.859 36.5561C163.237 35.0843 163.926 33.1335 163.926 30.7038C163.926 28.2507 163.237 26.2883 161.859 24.8164C160.48 23.3446 158.658 22.6087 156.392 22.6087ZM168.306 38.3784H170.759C171.109 38.3784 171.284 38.2032 171.284 37.8527V23.4848C171.284 23.1343 171.109 22.9591 170.759 22.9591H168.306C167.955 22.9591 167.78 22.7839 167.78 22.4334C167.78 22.083 167.955 21.9078 168.306 21.9078H171.81C172.16 21.9078 172.336 22.083 172.336 22.4334V24.3959C172.336 24.6295 172.382 24.7931 172.476 24.8865C172.569 24.98 172.709 24.9332 172.896 24.7463C174.789 22.6203 176.845 21.5573 179.064 21.5573C181.283 21.5573 182.989 22.1648 184.18 23.3796C185.395 24.5711 186.003 26.2999 186.003 28.5661V37.8527C186.003 38.2032 186.178 38.3784 186.528 38.3784H188.981C189.332 38.3784 189.507 38.5536 189.507 38.904C189.507 39.2545 189.332 39.4297 188.981 39.4297H182.323C181.973 39.4297 181.797 39.2545 181.797 38.904C181.797 38.5536 181.973 38.3784 182.323 38.3784H184.426C184.776 38.3784 184.951 38.2032 184.951 37.8527V28.5661C184.951 26.5803 184.437 25.0968 183.409 24.1155C182.381 23.111 180.98 22.6087 179.204 22.6087C177.429 22.6087 175.746 23.403 174.158 24.9916C173.457 25.6925 172.85 26.4752 172.336 27.3396V37.8527C172.336 38.2032 172.511 38.3784 172.861 38.3784H174.964C175.314 38.3784 175.489 38.5536 175.489 38.904C175.489 39.2545 175.314 39.4297 174.964 39.4297H168.306C167.955 39.4297 167.78 39.2545 167.78 38.904C167.78 38.5536 167.955 38.3784 168.306 38.3784Z" fill="white"/>
<path d="M62.6234 29.0571L67.9046 15.623L56.9844 28.8756H60.7405L62.6234 29.0571Z" fill="white"/>
<path d="M60.7037 28.9177L63.792 23.4424L56.9648 28.8686L60.7037 28.9177Z" fill="white"/>
<path d="M53.178 39.4185L44.1621 23.094L48.3496 20.4697L56.8965 35.5869L63.7754 23.4596H69.4998L60.5327 39.4185H53.178Z" fill="white"/>
<path d="M191.821 17.3742L218.689 17.3359L221.147 23.0228H199.73C199.73 23.0228 200.236 28.7976 207.492 31.7442C214.751 34.6908 220.708 27.8077 220.708 27.8077L222.221 25.6217L225.483 33.9379C225.483 33.9379 221.857 39.6477 211.801 40.221C201.745 40.7943 195.668 32.3557 195.668 32.3557C195.668 32.3557 190.515 26.9402 191.825 17.5194" fill="url(#paint0_linear_961_1675)"/>
<path d="M244.019 23.5492L249.124 11.0293L239.632 25.1935L244.019 23.5492Z" fill="url(#paint1_linear_961_1675)"/>
<path d="M243.149 25.1689L244.848 20.6709L239.632 25.1934L243.149 25.1689Z" fill="url(#paint2_linear_961_1675)"/>
<path d="M232.821 40.4296L222.091 14.402C221.334 12.2643 218.668 8.67185 212.207 8.12385C206.57 7.64576 203.785 10.2815 201.168 13.0682H192.727C193.399 10.8621 196.178 5.71089 201.92 2.75509C207.663 -0.200712 212.058 0.00857678 214.829 0.554741C218.587 1.29516 225.157 3.27872 228.827 10.1731L239.148 34.1325L244.825 20.6626H253.251L244.778 40.4296H232.821Z" fill="url(#paint3_linear_961_1675)"/>
<path d="M25.2073 24.9966L42.0277 24.9727L44.0367 28.5329H30.1585C30.1585 28.5329 30.4757 32.1481 35.018 33.9928C39.5627 35.8375 43.4166 31.6923 43.4166 31.6923C43.7894 31.38 44.1363 30.9216 44.7947 30.0208L47.3228 34.6962C47.3228 34.6962 44.011 38.9407 37.7157 39.2996C31.4204 39.6585 27.6159 34.3756 27.6159 34.3756C27.6159 34.3756 24.3896 30.9853 25.2097 25.0875" fill="white"/>
<path d="M44.1743 23.1182L48.3734 20.4883C46.076 16.1721 41.9628 14.9303 39.6106 14.4668C37.8754 14.1249 35.1239 13.9939 31.5291 15.8443C27.9343 17.6947 26.1941 20.9196 25.7734 22.3007H31.058C32.6964 20.5561 34.4401 18.9061 37.9689 19.2054C39.7549 19.3568 41.0539 19.8784 42.0006 20.5281C43.198 21.3499 43.5141 21.9649 44.1743 23.1182Z" fill="white"/>
<defs>
<linearGradient id="paint0_linear_961_1675" x1="191.607" y1="28.7899" x2="225.483" y2="28.7899" gradientUnits="userSpaceOnUse">
<stop stop-color="#5DCA3A"/>
<stop offset="1" stop-color="#02B4DE"/>
</linearGradient>
<linearGradient id="paint1_linear_961_1675" x1="248.214" y1="7.80011" x2="234.749" y2="19.2734" gradientUnits="userSpaceOnUse">
<stop stop-color="white"/>
<stop offset="1" stop-color="#02B4DE"/>
</linearGradient>
<linearGradient id="paint2_linear_961_1675" x1="248.784" y1="9.0745" x2="235.319" y2="20.5478" gradientUnits="userSpaceOnUse">
<stop offset="0.69371" stop-color="#3DB659"/>
<stop offset="1" stop-color="#85DCFF"/>
</linearGradient>
<linearGradient id="paint3_linear_961_1675" x1="192.718" y1="20.2326" x2="254.922" y2="20.2326" gradientUnits="userSpaceOnUse">
<stop stop-color="#5DCA3A"/>
<stop offset="1" stop-color="#02B4DE"/>
</linearGradient>
</defs>
</svg>
